<?xml version="1.0" standalone="no"?>
<!DOCTYPE svg PUBLIC "-//W3C//DTD SVG 20010904//EN"
 "http://www.w3.org/TR/2001/REC-SVG-20010904/DTD/svg10.dtd">
<svg version="1.0" xmlns="http://www.w3.org/2000/svg"
 width="700.000000pt" height="700.000000pt" viewBox="0 0 700.000000 700.000000"
 preserveAspectRatio="xMidYMid meet">
<metadata>
Created by potrace 1.14, written by Peter Selinger 2001-2017
</metadata>
<g transform="translate(0.000000,700.000000) scale(0.100000,-0.100000)"
fill="#000000" stroke="none">
<path d="M425 6989 c-46 -10 -57 -15 -140 -55 -72 -35 -169 -128 -213 -206
-62 -108 -72 -176 -72 -498 0 -252 2 -296 20 -363 70 -276 287 -522 595 -675
115 -56 175 -75 277 -86 29 -4 64 -8 78 -11 14 -2 48 -6 75 -9 28 -3 66 -8 85
-10 31 -5 139 -19 240 -31 19 -2 71 -9 115 -15 45 -6 99 -12 120 -15 66 -8
119 -15 145 -19 14 -3 50 -7 80 -11 30 -3 71 -7 90 -10 19 -2 57 -7 85 -11 27
-3 63 -13 80 -21 71 -36 134 -132 158 -240 12 -52 14 -80 9 -149 -5 -61 -195
-164 -352 -190 -99 -17 -143 -24 -198 -29 -74 -8 -346 -8 -379 -1 -12 2 -53 8
-90 11 -37 4 -76 9 -87 11 -10 2 -44 6 -75 9 -31 3 -67 8 -81 10 -14 2 -56 7
-95 10 -38 3 -83 8 -100 10 -16 2 -73 7 -125 10 -52 4 -115 8 -140 11 -25 2
-154 7 -288 10 l-242 7 0 -531 0 -530 1673 1 1672 2 0 800 c0 440 -4 827 -7
860 -19 168 -127 346 -268 442 -124 84 -289 144 -460 169 -19 2 -51 7 -70 10
-19 2 -75 7 -125 9 -49 3 -111 7 -137 10 -55 6 -115 12 -208 20 -36 3 -85 8
-110 10 -25 2 -76 7 -115 10 -38 3 -88 8 -110 10 -22 3 -70 7 -106 10 -123 9
-215 50 -292 130 -119 122 -125 266 -15 338 53 34 104 42 268 40 124 -1 181
-3 420 -19 47 -3 117 -7 155 -9 135 -8 260 -16 310 -19 28 -2 113 -7 190 -11
77 -4 160 -8 185 -10 57 -4 379 -17 445 -18 l50 -1 1 422 0 422 -1440 -1
c-810 -1 -1459 -5 -1481 -10z"/>
<path d="M3646 5198 c0 -992 2 -1808 2 -1815 2 -10 372 -12 1677 -12 l1675 0
0 734 0 733 -869 0 c-479 0 -874 3 -879 6 -5 3 -9 454 -9 1078 l0 1073 -799 3
-799 2 1 -1802z"/>
<path d="M2 1768 l3 -1343 23 -59 c63 -167 172 -273 352 -343 42 -17 132 -18
1330 -21 l1285 -2 28 122 c15 68 29 132 32 143 2 11 16 72 30 135 15 63 28
122 30 130 2 8 13 53 24 100 11 47 22 97 25 110 2 14 71 315 151 670 81 355
148 651 149 658 2 13 24 31 37 32 5 0 23 -61 33 -115 3 -11 20 -85 39 -165 19
-80 43 -181 53 -225 10 -44 18 -82 19 -85 1 -3 4 -18 8 -35 4 -16 9 -39 11
-50 3 -11 32 -137 66 -280 34 -143 63 -271 66 -285 5 -26 84 -365 134 -575 15
-66 36 -157 46 -202 l19 -83 1266 0 c1220 0 1269 1 1342 19 95 25 140 48 214
110 70 58 138 157 164 242 18 58 19 111 19 1400 l0 1339 -617 -2 -617 -3 -27
-135 c-16 -74 -31 -151 -34 -170 -4 -19 -11 -55 -17 -80 -5 -25 -12 -56 -14
-70 -3 -13 -12 -56 -20 -95 -9 -38 -17 -81 -20 -95 -2 -14 -7 -36 -10 -50 -3
-14 -8 -34 -10 -45 -9 -44 -35 -172 -40 -195 -3 -14 -8 -38 -10 -55 -3 -16
-16 -79 -29 -140 -13 -60 -26 -121 -29 -135 -6 -34 -40 -202 -82 -400 -19 -91
-37 -178 -40 -195 -2 -16 -7 -37 -9 -45 -4 -14 -10 -45 -21 -100 -11 -62 -15
-70 -34 -70 -12 0 -22 9 -25 23 -2 12 -14 60 -25 107 -11 47 -22 94 -25 105
-2 11 -15 67 -29 125 -14 58 -35 143 -46 190 -11 47 -40 168 -64 270 -25 102
-47 196 -50 210 -2 14 -14 63 -26 110 -12 47 -23 92 -25 100 -10 45 -51 220
-95 405 -28 116 -62 261 -77 323 l-27 112 -1311 0 -1311 0 -43 -182 c-53 -223
-127 -535 -182 -763 -23 -93 -43 -181 -46 -195 -2 -14 -10 -50 -18 -80 -8 -30
-26 -102 -39 -160 -14 -58 -52 -219 -86 -359 -33 -140 -62 -265 -64 -278 -9
-48 -18 -63 -37 -63 -10 0 -19 3 -20 8 0 4 -2 14 -4 22 -6 29 -14 66 -29 140
-8 41 -31 154 -51 250 -44 210 -44 209 -50 240 -2 14 -20 100 -39 192 -20 91
-37 177 -40 190 -13 69 -60 294 -76 368 -10 47 -22 105 -25 130 -4 24 -8 48
-11 51 -4 7 -41 186 -50 244 -3 17 -9 46 -14 65 -5 19 -12 51 -15 70 -3 19
-10 49 -14 67 -5 17 -6 34 -3 37 3 3 -272 6 -612 6 l-617 0 3 -1342z"/>
</g>
</svg>
